<?xml version="1.0" standalone="no"?>
<!DOCTYPE svg PUBLIC "-//W3C//DTD SVG 20010904//EN"
 "http://www.w3.org/TR/2001/REC-SVG-20010904/DTD/svg10.dtd">
<svg version="1.0" xmlns="http://www.w3.org/2000/svg"
 width="343.000000pt" height="275.000000pt" viewBox="0 0 343.000000 275.000000"
 preserveAspectRatio="xMidYMid meet">
<metadata>
Created by potrace 1.16, written by Peter Selinger 2001-2019
</metadata>
<g transform="translate(0.000000,275.000000) scale(0.100000,-0.100000)"
fill="#000000" stroke="none">
<path d="M243 2455 c-98 -42 -86 -181 23 -252 136 -89 139 -95 138 -288 l-1
-150 -52 -170 c-71 -233 -91 -340 -91 -472 1 -128 17 -202 65 -301 99 -200
279 -281 561 -255 87 9 124 8 168 -2 115 -27 312 -38 599 -33 468 8 656 -8
893 -76 141 -41 235 -31 284 31 17 22 22 23 57 14 50 -14 142 -14 182 0 55 19
20 31 -99 32 l-111 1 -40 38 c-26 25 -101 68 -210 120 -93 45 -169 86 -169 91
0 5 50 8 112 6 l111 -4 13 58 c14 60 36 110 62 140 19 21 12 29 -41 43 -37 9
-41 13 -37 35 5 28 5 23 -8 309 -10 239 -25 313 -62 325 -28 9 -47 -8 -140
-122 l-85 -104 -45 6 c-25 4 -48 10 -51 13 -3 4 -30 64 -59 133 -58 137 -77
160 -115 135 -26 -17 -86 -137 -136 -271 -21 -58 -47 -107 -73 -137 l-40 -47
-30 52 c-141 253 -270 357 -441 357 -313 0 -605 -398 -605 -822 l0 -78 -43 0
c-99 0 -170 70 -203 200 -24 95 -15 314 20 480 88 418 100 528 72 655 -23 105
-65 181 -141 257 -61 61 -162 84 -232 53z m1949 -1157 c33 -12 68 -65 68 -102
0 -64 -59 -126 -119 -126 -103 0 -163 117 -102 198 19 25 86 53 111 45 8 -3
27 -9 42 -15z m321 -42 c48 -20 76 -56 83 -108 6 -42 4 -49 -27 -82 -27 -28
-44 -37 -80 -41 -39 -5 -51 -1 -86 24 -32 23 -42 38 -48 69 -12 71 21 120 94
143 14 4 27 8 29 8 1 1 17 -5 35 -13z"/>
<path d="M2115 1254 c-35 -37 -35 -105 -1 -139 21 -21 28 -23 54 -14 33 11 62
60 62 102 0 35 -36 77 -66 77 -14 0 -36 -12 -49 -26z"/>
<path d="M2454 1204 c-36 -37 -42 -71 -24 -118 18 -49 99 -47 125 4 22 43 19
84 -11 119 -33 40 -49 39 -90 -5z"/>
<path d="M2803 1020 c-35 -26 -102 -110 -88 -110 3 0 20 10 36 23 28 20 40 22
132 19 177 -6 251 -5 285 3 40 9 43 -7 5 -32 -30 -20 -129 -23 -264 -9 -87 10
-133 -1 -169 -39 -13 -14 -29 -25 -36 -25 -13 0 -24 -31 -24 -72 0 -33 12 -35
48 -10 76 52 131 72 199 72 38 0 93 -6 123 -13 68 -16 117 -8 170 27 l40 26
-16 33 c-9 17 -27 46 -40 63 -21 29 -26 31 -73 26 -33 -3 -64 1 -91 12 -22 9
-68 16 -101 16 -33 0 -68 4 -78 10 -14 7 -28 2 -58 -20z"/>
<path d="M3210 804 c-52 -28 -86 -29 -215 -8 l-96 17 -72 -36 c-99 -50 -135
-80 -121 -103 6 -10 23 -22 38 -27 23 -8 34 -5 59 14 30 23 40 24 187 24 l155
0 68 38 c68 38 72 44 61 85 -7 26 -6 26 -64 -4z"/>
<path d="M3200 671 c-44 -25 -48 -26 -194 -23 -120 2 -152 0 -172 -12 -23 -16
-23 -17 -6 -46 15 -27 21 -29 47 -23 43 10 182 5 238 -8 42 -10 50 -9 69 7 26
24 78 104 78 121 0 17 -7 16 -60 -16z"/>
</g>
</svg>
