<svg width="892" height="484" viewBox="0 0 892 484" fill="none" xmlns="http://www.w3.org/2000/svg">
<g id="Vector 1" opacity="0.48" filter="url(#filter0_d_438_4833)">
<path d="M249 1.99962C314 -2.50038 433.5 70.9996 507 64.9996C580.5 58.9996 646.5 48.4999 717 11.4999C787.5 -25.5001 895.5 36 887 187C878.5 338 771.5 228.5 717 289.5C662.5 350.5 703 417.5 658 444C615.711 468.903 458 457.5 384.5 456.5C311 455.5 337 483.5 172.5 473C8.00002 462.5 -5.50001 367.5 9.50001 283.5C24.5 199.5 67.0808 199.887 132.5 139.5C204 73.4996 184 6.49962 249 1.99962Z" fill="#CE2023"/>
<path d="M249 1.99962C314 -2.50038 433.5 70.9996 507 64.9996C580.5 58.9996 646.5 48.4999 717 11.4999C787.5 -25.5001 895.5 36 887 187C878.5 338 771.5 228.5 717 289.5C662.5 350.5 703 417.5 658 444C615.711 468.903 458 457.5 384.5 456.5C311 455.5 337 483.5 172.5 473C8.00002 462.5 -5.50001 367.5 9.50001 283.5C24.5 199.5 67.0808 199.887 132.5 139.5C204 73.4996 184 6.49962 249 1.99962Z" stroke="black"/>
</g>
<defs>
<filter id="filter0_d_438_4833" x="0.375854" y="0.515625" width="891.597" height="483.344" filterUnits="userSpaceOnUse" color-interpolation-filters="sRGB">
<feFlood flood-opacity="0" result="BackgroundImageFix"/>
<feColorMatrix in="SourceAlpha" type="matrix" values="0 0 0 0 0 0 0 0 0 0 0 0 0 0 0 0 0 0 127 0" result="hardAlpha"/>
<feOffset dy="4"/>
<feGaussianBlur stdDeviation="2"/>
<feComposite in2="hardAlpha" operator="out"/>
<feColorMatrix type="matrix" values="0 0 0 0 0 0 0 0 0 0 0 0 0 0 0 0 0 0 0.25 0"/>
<feBlend mode="normal" in2="BackgroundImageFix" result="effect1_dropShadow_438_4833"/>
<feBlend mode="normal" in="SourceGraphic" in2="effect1_dropShadow_438_4833" result="shape"/>
</filter>
</defs>
</svg>
