<svg width="662" height="379" viewBox="0 0 662 379" fill="none" xmlns="http://www.w3.org/2000/svg">
<g opacity="0.48" filter="url(#filter0_d_1220_17093)">
<path d="M163.499 40C241.117 15.8838 274.877 33.8883 340.999 28.4999C407.121 23.1114 469.638 37.4626 532.999 7.49985C596.359 -22.4629 664.499 42.9998 656.499 134C648.499 225 606.528 214.217 557.499 269C508.47 323.783 498.998 330.5 469.499 340.5C439.999 350.5 395.999 358 323.999 368C251.999 378 210.701 357.119 122.999 340.5C35.2963 323.881 15.499 332.5 5.99871 260.5C-3.50159 188.499 29.9993 162 52.9995 134C75.9996 106 85.8802 64.1162 163.499 40Z" fill="#CE2023"/>
</g>
<defs>
<filter id="filter0_d_1220_17093" x="0.34375" y="0.146973" width="660.797" height="378.457" filterUnits="userSpaceOnUse" color-interpolation-filters="sRGB">
<feFlood flood-opacity="0" result="BackgroundImageFix"/>
<feColorMatrix in="SourceAlpha" type="matrix" values="0 0 0 0 0 0 0 0 0 0 0 0 0 0 0 0 0 0 127 0" result="hardAlpha"/>
<feOffset dy="4"/>
<feGaussianBlur stdDeviation="2"/>
<feComposite in2="hardAlpha" operator="out"/>
<feColorMatrix type="matrix" values="0 0 0 0 0 0 0 0 0 0 0 0 0 0 0 0 0 0 0.25 0"/>
<feBlend mode="normal" in2="BackgroundImageFix" result="effect1_dropShadow_1220_17093"/>
<feBlend mode="normal" in="SourceGraphic" in2="effect1_dropShadow_1220_17093" result="shape"/>
</filter>
</defs>
</svg>
