<svg width="827" height="430" viewBox="0 0 827 430" fill="none" xmlns="http://www.w3.org/2000/svg">
<g id="Vector 2" opacity="0.48" filter="url(#filter0_d_438_4835)">
<path d="M233 5.00021C310.618 -19.116 399.878 79.3885 466 74C532.122 68.6115 637.14 41.4632 700.5 11.5005C763.86 -18.4622 829.5 36.5 821.5 127.5C813.5 218.5 669.029 216.717 620 271.5C570.971 326.283 646.045 367.037 605.562 390.837C567.518 413.202 505.5 381 381 390.837C256.5 400.673 256.5 433.5 168.798 416.881C81.0952 400.262 -18 390.837 10 276.5C38 162.163 123.5 164 132.813 117.37C142.126 70.7408 155.382 29.1164 233 5.00021Z" fill="#CE2023"/>
<path d="M233 5.00021C310.618 -19.116 399.878 79.3885 466 74C532.122 68.6115 637.14 41.4632 700.5 11.5005C763.86 -18.4622 829.5 36.5 821.5 127.5C813.5 218.5 669.029 216.717 620 271.5C570.971 326.283 646.045 367.037 605.562 390.837C567.518 413.202 505.5 381 381 390.837C256.5 400.673 256.5 433.5 168.798 416.881C81.0952 400.262 -18 390.837 10 276.5C38 162.163 123.5 164 132.813 117.37C142.126 70.7408 155.382 29.1164 233 5.00021Z" stroke="black"/>
</g>
<defs>
<filter id="filter0_d_438_4835" x="0.669464" y="0.691406" width="825.995" height="429.309" filterUnits="userSpaceOnUse" color-interpolation-filters="sRGB">
<feFlood flood-opacity="0" result="BackgroundImageFix"/>
<feColorMatrix in="SourceAlpha" type="matrix" values="0 0 0 0 0 0 0 0 0 0 0 0 0 0 0 0 0 0 127 0" result="hardAlpha"/>
<feOffset dy="4"/>
<feGaussianBlur stdDeviation="2"/>
<feComposite in2="hardAlpha" operator="out"/>
<feColorMatrix type="matrix" values="0 0 0 0 0 0 0 0 0 0 0 0 0 0 0 0 0 0 0.25 0"/>
<feBlend mode="normal" in2="BackgroundImageFix" result="effect1_dropShadow_438_4835"/>
<feBlend mode="normal" in="SourceGraphic" in2="effect1_dropShadow_438_4835" result="shape"/>
</filter>
</defs>
</svg>
